<?xml version="1.0" encoding="UTF-8" standalone="no"?>
<!-- Created with Inkscape (http://www.inkscape.org/) -->

<svg
   xmlns:dc="http://purl.org/dc/elements/1.1/"
   xmlns:cc="http://creativecommons.org/ns#"
   xmlns:rdf="http://www.w3.org/1999/02/22-rdf-syntax-ns#"
   xmlns:svg="http://www.w3.org/2000/svg"
   xmlns="http://www.w3.org/2000/svg"
   xmlns:sodipodi="http://sodipodi.sourceforge.net/DTD/sodipodi-0.dtd"
   xmlns:inkscape="http://www.inkscape.org/namespaces/inkscape"
   width="98.370003"
   height="40.41"
   id="svg2"
   version="1.1"
   inkscape:version="0.48.0 r9654"
   sodipodi:docname="Telkomsel_Logo.svg">
  <defs
     id="defs4">
    <inkscape:perspective
       sodipodi:type="inkscape:persp3d"
       inkscape:vp_x="0 : 526.18109 : 1"
       inkscape:vp_y="0 : 1000 : 0"
       inkscape:vp_z="744.09448 : 526.18109 : 1"
       inkscape:persp3d-origin="372.04724 : 350.78739 : 1"
       id="perspective10" />
    <inkscape:perspective
       id="perspective2824"
       inkscape:persp3d-origin="0.5 : 0.33333333 : 1"
       inkscape:vp_z="1 : 0.5 : 1"
       inkscape:vp_y="0 : 1000 : 0"
       inkscape:vp_x="0 : 0.5 : 1"
       sodipodi:type="inkscape:persp3d" />
    <inkscape:perspective
       id="perspective3616"
       inkscape:persp3d-origin="0.5 : 0.33333333 : 1"
       inkscape:vp_z="1 : 0.5 : 1"
       inkscape:vp_y="0 : 1000 : 0"
       inkscape:vp_x="0 : 0.5 : 1"
       sodipodi:type="inkscape:persp3d" />
    <inkscape:perspective
       id="perspective3648"
       inkscape:persp3d-origin="0.5 : 0.33333333 : 1"
       inkscape:vp_z="1 : 0.5 : 1"
       inkscape:vp_y="0 : 1000 : 0"
       inkscape:vp_x="0 : 0.5 : 1"
       sodipodi:type="inkscape:persp3d" />
    <inkscape:perspective
       id="perspective5461"
       inkscape:persp3d-origin="0.5 : 0.33333333 : 1"
       inkscape:vp_z="1 : 0.5 : 1"
       inkscape:vp_y="0 : 1000 : 0"
       inkscape:vp_x="0 : 0.5 : 1"
       sodipodi:type="inkscape:persp3d" />
  </defs>
  <sodipodi:namedview
     id="base"
     pagecolor="#ffffff"
     bordercolor="#666666"
     borderopacity="1.0"
     inkscape:pageopacity="0.0"
     inkscape:pageshadow="2"
     inkscape:zoom="1.0146982"
     inkscape:cx="-235.98727"
     inkscape:cy="10.69573"
     inkscape:document-units="px"
     inkscape:current-layer="layer1"
     showgrid="false"
     inkscape:window-width="1280"
     inkscape:window-height="972"
     inkscape:window-x="-8"
     inkscape:window-y="-8"
     inkscape:window-maximized="1" />
  <metadata
     id="metadata7">
    <rdf:RDF>
      <cc:Work
         rdf:about="">
        <dc:format>image/svg+xml</dc:format>
        <dc:type
           rdf:resource="http://purl.org/dc/dcmitype/StillImage" />
        <dc:title />
      </cc:Work>
    </rdf:RDF>
  </metadata>
  <g
     inkscape:label="Layer 1"
     inkscape:groupmode="layer"
     id="layer1"
     transform="translate(-529.82413,-362.74411)">
    <path
       style="color:#000000;fill:#000000;stroke:none;stroke-width:1;marker:none;visibility:visible;display:inline;overflow:visible;enable-background:accumulate"
       d="m 546.19185,387.36206 8.16385,-0.97966 3.49412,-7.64136 -5.06158,-6.75967 -8.35978,0.97967 -3.26554,8.09854 5.02893,6.30248 z"
       id="path3606-1" />
    <path
       style="color:#000000;fill:#ff0000;stroke:none;stroke-width:1;marker:none;visibility:visible;display:inline;overflow:visible;enable-background:accumulate"
       d="m 544.10191,386.23545 8.16384,-0.97966 3.49413,-7.64136 -5.06158,-6.75967 -8.35978,0.97967 -3.26554,8.09853 5.02893,6.30249 z"
       id="path3606" />
    <path
       style="color:#000000;fill:#a7a5a6;fill-opacity:1;stroke:none;stroke-width:1;marker:none;visibility:visible;display:inline;overflow:visible;enable-background:accumulate"
       d="m 552.90253,387.21512 c -0.25745,0.96083 -2.88979,4.52276 -5.58407,4.52276 -2.3729,0 -3.13452,-3.75196 -3.20022,-4.60441 -0.22769,-2.95392 0.0379,-5.93381 0.63677,-8.93125 3.38205,-0.90622 6.95465,-0.71635 10.33543,-0.39186 3.08858,0.31572 5.64939,1.67139 5.64939,3.64108 0,2.13375 -4.36224,3.89713 -5.50244,4.55543 1.68307,-0.45098 8.2494,-2.93463 8.2494,-6.04194 0,-3.75861 -4.4836,-5.03762 -6.78871,-5.5649 -3.35976,-0.76851 -6.90165,-0.67193 -10.50633,-0.27709 0.98908,-3.14943 2.92014,-5.47253 4.64125,-5.47253 2.18089,0 2.71115,2.93372 3.41745,4.66435 0,-2.52072 -1.72542,-7.15816 -4.59508,-7.15816 -4.00422,0 -6.29187,5.2306 -7.20434,8.63598 -4.88887,1.13033 -9.96922,3.84593 -9.97525,7.41216 -0.005,2.67604 4.81651,4.53454 7.92181,4.96802 -2.12942,-0.57058 -5.174,-2.09719 -5.174,-3.83657 0,-1.62853 3.28444,-3.65081 6.11908,-4.41035 -0.46189,4.22118 -0.68713,8.43184 0.78358,12.56713 0.66207,1.86154 2.08472,3.9513 4.03294,3.9513 3.57773,0 5.90634,-5.10542 6.74334,-8.22915 z"
       id="path3630"
       sodipodi:nodetypes="ccccccccccccccccccccc" />
    <path
       style="color:#000000;fill:#ffffff;stroke:none;stroke-width:1;marker:none;visibility:visible;display:inline;overflow:visible;enable-background:accumulate"
       d="m 547.5033,371.22143 -3.96008,0.46874 c -0.47168,1.07439 -0.83805,2.15926 -1.09104,3.10341 -0.48704,0.11261 -0.97721,0.2446 -1.4628,0.38793 l -1.83457,4.54197 c 0.71844,-0.33008 1.46829,-0.60667 2.19016,-0.8001 -0.12755,1.16571 -0.23833,2.32859 -0.29902,3.49134 l 3.01451,3.7742 c -0.11064,-2.64328 0.1601,-5.30739 0.69503,-7.98481 3.38205,-0.90622 6.95584,-0.7205 10.33663,-0.39601 0.18233,0.0186 0.36324,0.0469 0.54148,0.0727 l 0.1293,-0.2667 -2.81246,-3.73379 c -2.20576,-0.13363 -4.46962,-0.008 -6.75639,0.24245 0.34146,-1.08724 0.79067,-2.07266 1.30925,-2.90136 z"
       id="path3630-7" />
    <path
       style="color:#000000;fill:#fffdff;fill-opacity:1;stroke:none;stroke-width:1;marker:none;visibility:visible;display:inline;overflow:visible;enable-background:accumulate"
       d="m 564.30743,376.04371 -0.35431,1.66869 2.44588,0 -1.4401,8.11486 1.87442,0 1.32581,-8.11486 2.42303,0 0.27431,-1.66869 -6.54904,0 z"
       id="path3677"
       sodipodi:nodetypes="ccccccccc" />
    <g
       transform="matrix(0.22353395,0,-0.05405249,0.29920743,464.67746,271.05063)"
       style="font-size:45.99935532px;font-style:normal;font-variant:normal;font-weight:bold;font-stretch:normal;text-align:start;line-height:125%;writing-mode:lr-tb;text-anchor:start;fill:#000000;fill-opacity:1;stroke:none;font-family:Arial;-inkscape-font-specification:Arial Bold"
       id="text3679">
      <path
         d="m 540.68173,383.55383 0,-27.35704 -9.77037,0 0,-5.57023 26.16663,0 0,5.57023 -9.74791,0 0,27.35704 z"
         id="path2847" />
      <path
         d="m 561.39043,383.55383 0,-32.92727 24.41469,0 0,5.57023 -17.76635,0 0,7.29971 16.53102,0 0,5.54777 -16.53102,0 0,8.96179 18.39525,0 0,5.54777 z"
         id="path2849" />
      <path
         d="m 592.29625,383.55383 0,-32.65774 6.64834,0 0,27.10997 16.53102,0 0,5.54777 z"
         id="path2851" />
      <path
         d="m 620.3271,383.55383 0,-32.92727 6.64834,0 0,14.62187 13.43146,-14.62187 8.93932,0 -12.39826,12.82502 13.07208,20.10225 -8.60241,0 -9.05164,-15.45291 -5.39055,5.50286 0,9.95005 z"
         id="path2853" />
      <path
         d="m 652.13134,367.29234 c 0,-3.3541 0.50162,-6.16916 1.50486,-8.44519 0.74869,-1.67704 1.66504,-3.61859 2.96028,-4.95128 1.29522,-1.33263 2.81958,-1.88421 4.36189,-2.52811 2.05139,-0.86844 4.41724,-1.30268 7.09755,-1.30272 4.85148,4e-5 8.73342,1.5049 11.64584,4.51459 2.91236,3.00975 4.36855,7.19491 4.36859,12.55549 -4e-5,5.31569 -1.445,9.47464 -4.3349,12.47687 -2.88996,3.00224 -6.75319,4.50336 -11.58968,4.50336 -4.89643,0 -8.7896,-1.49363 -11.67953,-4.4809 -2.88993,-2.98725 -4.3349,-7.10128 -4.3349,-12.34211 z m 6.85049,-0.2246 c -10e-6,3.72847 0.86098,6.55476 2.58297,8.47888 1.72197,1.92413 3.90814,2.8862 6.55851,2.88619 2.65033,10e-6 4.82526,-0.95457 6.52481,-2.86373 1.69949,-1.90914 2.54925,-4.77287 2.54928,-8.59119 -3e-5,-3.77336 -0.82733,-6.58842 -2.4819,-8.44519 -1.65462,-1.85672 -3.85202,-2.78509 -6.59219,-2.78512 -2.74022,3e-5 -4.94884,0.93963 -6.62589,2.81881 -1.67707,1.87923 -2.5156,4.71301 -2.51559,8.50135 z"
         id="path2855"
         inkscape:connector-curvature="0"
         sodipodi:nodetypes="scsccccsssssscscccss" />
      <path
         d="m 689.14645,383.55383 0,-32.92727 9.95006,0 5.97453,22.46062 5.90714,-22.46062 9.97252,0 0,32.92727 -6.17668,0 0,-25.91956 -6.53604,25.91956 -6.40127,0 -6.51358,-25.91956 0,25.91956 z"
         id="path2857" />
      <path
         d="m 725.9145,372.84012 6.46866,-0.6289 c 0.38931,2.1712 1.17917,3.7659 2.36959,4.78411 1.1904,1.01822 2.79634,1.52733 4.81781,1.52732 2.14122,10e-6 3.75464,-0.45295 4.84026,-1.35886 1.08558,-0.90591 1.62837,-1.9653 1.62839,-3.17818 -2e-5,-0.77863 -0.22837,-1.44121 -0.68504,-1.98777 -0.45672,-0.54653 -1.25408,-1.02194 -2.39206,-1.42625 -0.77865,-0.26951 -2.55304,-0.74867 -5.32317,-1.43748 -3.56376,-0.88343 -6.06437,-1.96903 -7.50185,-3.25679 -2.02146,-1.8118 -3.03218,-4.02043 -3.03218,-6.62588 0,-1.67703 0.47541,-3.24553 1.42625,-4.7055 0.95083,-1.45991 2.32092,-2.57171 4.11029,-3.3354 1.78936,-0.76363 3.94932,-1.14546 6.47989,-1.1455 4.13274,4e-5 7.24353,0.90595 9.33239,2.71774 2.08881,1.81185 3.18564,4.23011 3.29048,7.25478 l -6.64834,0.29199 c -0.28452,-1.69201 -0.8947,-2.90863 -1.83054,-3.64985 -0.93588,-0.74118 -2.33967,-1.11177 -4.21137,-1.1118 -1.93163,3e-5 -3.44397,0.39683 -4.53704,1.19041 -0.70378,0.50913 -1.05566,1.19044 -1.05565,2.04392 -10e-6,0.77866 0.32941,1.44499 0.98826,1.99899 0.83852,0.70379 2.87495,1.4375 6.10929,2.20114 3.23431,0.76368 5.62637,1.55355 7.17617,2.3696 1.54976,0.81609 2.76263,1.93163 3.63862,3.34663 0.87594,1.41503 1.31392,3.16322 1.31395,5.24456 -3e-5,1.8867 -0.52411,3.6536 -1.57224,5.3007 -1.04819,1.64712 -2.53059,2.87122 -4.44721,3.67232 -1.91666,0.80109 -4.30497,1.20164 -7.16494,1.20164 -4.16271,0 -7.3596,-0.96206 -9.59068,-2.88619 -2.23109,-1.92412 -3.56376,-4.72795 -3.99799,-8.4115 z"
         id="path2859" />
      <path
         d="m 758.32516,383.55383 0,-32.92727 24.4147,0 0,5.57023 -17.76635,0 0,7.29971 16.53102,0 0,5.54777 -16.53102,0 0,8.96179 18.39525,0 0,5.54777 z"
         id="path2861" />
      <path
         d="m 789.23098,383.55383 0,-32.65774 6.64835,0 0,27.10997 16.53102,0 0,5.54777 z"
         id="path2863" />
    </g>
    <path
       id="path4522-3"
       d="m 537.0474,397.71529 c 0,0 -0.19834,-0.002 -0.1932,-0.18091 0.005,-0.19423 0.17628,-0.2205 0.17628,-0.2205 l 1.83662,0.009 c 0,0 0.30766,-0.0572 0.28838,0.24038 -0.0142,0.21903 -0.30532,0.17849 -0.30532,0.17849 h -0.6094 l 0.0169,2.29498 c 0,0 -0.0201,0.20358 -0.24642,0.19728 -0.18778,-0.005 -0.19371,-0.17983 -0.19371,-0.17983 v -2.32993 z"
       style="fill:#023d7c;fill-opacity:1" />
    <path
       id="path4548-2"
       d="m 541.15235,397.38375 c 0,0 -0.004,-0.19369 0.21199,-0.188 0.21916,0.006 0.20273,0.20546 0.20273,0.20546 l 0.008,2.63534 c 0,0 0.0138,0.19678 -0.21201,0.19726 -0.19736,1.9e-4 -0.19424,-0.18854 -0.19424,-0.18854 z"
       style="fill:#023d7c;fill-opacity:1" />
    <path
       id="path4550-2"
       d="m 542.04105,397.33188 c 0,0 0.0307,-0.17467 0.19457,-0.17935 0.18792,-0.005 0.20324,0.17062 0.20324,0.17062 l -0.0169,1.80633 1.06645,-1.08208 c 0,0 0.18497,-0.16315 0.31316,0.009 0.11397,0.15282 -0.0338,0.27924 -0.0338,0.27924 l -0.65174,0.67189 0.71942,0.89879 c 0,0 0.10927,0.20444 -0.021,0.29103 -0.18118,0.12047 -0.30065,-0.0467 -0.30065,-0.0467 l -0.70249,-0.89008 -0.37241,0.3665 0.008,0.45377 c 0,0 0.003,0.16822 -0.23699,0.1658 -0.22283,-0.002 -0.18621,-0.1658 -0.18621,-0.1658 z"
       style="fill:#023d7c;fill-opacity:1" />
    <path
       style="fill:#023d7c;fill-opacity:1"
       d="m 545.08712,397.99502 a 1.125687,1.1344097 0 0 0 -1.15903,1.1348 1.1264208,1.135149 0 0 0 2.25284,0 1.125687,1.1344097 0 0 0 -1.09381,-1.1348 z m -0.028,0.38386 a 0.75327927,0.76790799 0 0 1 0.73232,0.76772 0.753745,0.76838287 0 0 1 -1.50749,0 0.75327927,0.76790799 0 0 1 0.77517,-0.76772 z"
       id="path4552-1" />
    <path
       id="path4556"
       d="m 565.39751,398.32885 c 0,0 -0.008,-0.20316 0.19938,-0.19908 0.21104,0.004 0.21428,0.19199 0.21428,0.19199 l 0.004,1.81196 c 0,0 -7.7e-4,0.18082 -0.21846,0.18117 -0.19005,1.6e-4 -0.19182,-0.19455 -0.19182,-0.19455 z"
       style="fill:#00a2e1;fill-opacity:1" />
    <path
       style="fill:#00a2e1;fill-opacity:1"
       d="m 557.74541,398.11474 a 1.1093135,1.1179093 0 0 0 -1.14218,1.11646 1.1093135,1.1179093 0 0 0 2.21824,0 1.1093135,1.1179093 0 0 0 -1.07606,-1.11646 z m -0.10284,0.37827 a 0.74232253,0.75673859 0 0 1 0.79511,0.75656 0.74232253,0.75673859 0 0 1 -1.48371,0 0.74232253,0.75673859 0 0 1 0.6886,-0.75656 z"
       id="path4558" />
    <path
       style="fill:#04a3e4;fill-opacity:1"
       d="m 556.09275,397.2829 c -0.22868,2e-4 -0.20934,0.16527 -0.20934,0.16527 0,0 0.0265,0.91754 0,0.93834 -0.0218,0.0172 -0.11114,-0.0662 -0.23504,-0.13956 -0.12443,-0.0737 -0.28856,-0.0988 -0.47193,-0.11936 -0.2415,-0.027 -0.49793,0.0555 -0.68861,0.21852 -0.23378,0.19985 -0.39639,0.49994 -0.3948,0.85571 0.002,0.3423 0.12182,0.63148 0.33236,0.81899 0.18794,0.1674 0.41064,0.28049 0.75656,0.28095 0.15563,1.6e-4 0.34275,-0.0578 0.46825,-0.14874 0.14344,-0.10394 0.21783,-0.19842 0.2479,-0.18547 0.0519,0.0224 -0.0826,0.31715 0.17996,0.31768 0.23205,5.2e-4 0.19096,-0.27912 0.19096,-0.27912 l -0.004,-2.56345 c 0,0 -0.005,-0.15998 -0.17261,-0.15976 z m -0.9108,1.18258 a 0.74232253,0.75673859 0 0 1 0.71982,0.75654 0.74232253,0.75673859 0 0 1 -1.48372,0 0.74232253,0.75673859 0 0 1 0.7639,-0.75654 z"
       id="path4575" />
    <path
       id="path4588"
       d="m 551.03234,397.52735 c 0,0 -0.004,-0.19087 0.2089,-0.18527 0.21597,0.005 0.19978,0.20247 0.19978,0.20247 l 0.008,2.59701 c 0,0 0.0137,0.19391 -0.20894,0.19438 -0.19448,2.1e-4 -0.19142,-0.18579 -0.19142,-0.18579 z"
       style="fill:#00a2e1;fill-opacity:1" />
    <path
       id="path4598-6"
       d="m 548.86489,398.38492 c 0.27356,0.002 0.40553,0.31174 0.40934,0.45131 0.0108,0.39725 0,1.2423 0,1.2423 0,0 0.0223,0.17301 0.19846,0.17552 0.21769,0.003 0.22063,-0.16622 0.22063,-0.16622 0,0 0.0111,-0.98166 0.0134,-1.45165 0.002,-0.31763 -0.34583,-0.62032 -0.81089,-0.63278 -0.43454,-0.0116 -0.65502,0.17193 -0.76819,0.33965 -0.005,2.48782 -0.26126,-0.0217 0.73737,0.0419 z"
       style="fill:#023d7c;fill-opacity:1" />
    <path
       style="color:#000000;fill:#00a2e1;fill-opacity:1;stroke:none;stroke-width:1px;marker:none;visibility:visible;display:inline;overflow:visible;enable-background:accumulate"
       d="m 567.06689,398.15868 c -0.26607,0 -0.67246,0.056 -0.78793,0.256 -0.0385,0.0668 -0.0132,0.16775 0.0552,0.21307 0.0704,0.0467 0.15457,0.0391 0.20081,0.0214 0.21138,-0.0809 0.32977,-0.1303 0.49667,-0.1303 0.27118,0 0.60245,0.0979 0.60245,0.34492 l 0,0.19314 c -0.0776,-0.0448 -0.23821,-0.0935 -0.60245,-0.0935 -0.63597,0 -0.93662,0.38177 -0.93662,0.68675 0,0.33819 0.22744,0.6699 0.81859,0.6699 0.31159,0 0.61967,-0.0655 0.73581,-0.26674 l 0,0.15943 c 0,0.0608 0.0666,0.10731 0.14869,0.10731 0.11037,0 0.21308,-0.0387 0.21308,-0.1487 l 0,-1.36431 c 0,-0.34237 -0.4497,-0.64844 -0.94429,-0.64844 z m -0.0614,1.09759 c 0.20597,-0.0108 0.41509,0.0371 0.61318,0.0996 0.031,0.11563 0.0107,0.20336 0.0107,0.28973 0,0.12525 -0.3315,0.37557 -0.64689,0.37557 -0.28079,0 -0.50281,-0.15256 -0.50281,-0.3725 0,-0.13163 0.12932,-0.30864 0.32192,-0.36024 0.0676,-0.0182 0.13522,-0.0285 0.20388,-0.0322 z"
       id="path2916-0" />
    <path
       style="color:#000000;fill:#00a2e1;fill-opacity:1;stroke:none;stroke-width:1px;marker:none;visibility:visible;display:inline;overflow:visible;enable-background:accumulate"
       d="m 564.87104,398.65787 c -0.11912,0 -0.31566,-0.1812 -0.57131,-0.1812 -0.28312,0 -0.40717,0.0725 -0.40717,0.26007 0,0.16353 0.2494,0.20555 0.41356,0.25582 0.12637,0.0387 0.35388,0.11882 0.35388,0.11882 0.29845,0.10021 0.42848,0.30436 0.42848,0.5867 0,0.25761 -0.24836,0.48976 -0.42848,0.53803 -0.55308,0.14819 -1.26202,-0.13751 -1.26202,-0.32853 0,-0.19395 0.13714,-0.24127 0.21535,-0.20906 0.21479,0.0885 0.37045,0.23015 0.65605,0.23015 0.23494,0 0.4281,-0.038 0.4281,-0.23903 0,-0.21504 -0.46447,-0.31904 -0.54806,-0.34143 -0.0648,-0.0174 -0.6555,-0.12454 -0.6555,-0.59236 0,-0.37509 0.33382,-0.6331 0.72119,-0.6331 0.37042,0 0.82861,0.13104 0.82861,0.36479 0,0.0673 -0.024,0.17033 -0.17268,0.17033 z"
       id="path3768"
       sodipodi:nodetypes="ccccccccsccccccc" />
    <path
       style="color:#000000;fill:#00a2e1;fill-opacity:1;stroke:none;stroke-width:1px;marker:none;visibility:visible;display:inline;overflow:visible;enable-background:accumulate"
       d="m 562.31795,398.13493 c -0.73583,0 -1.04228,0.62232 -1.04228,1.09076 0,0.45359 0.29067,1.09076 1.09378,1.09076 0.3376,0 0.86201,-0.26824 0.86201,-0.49236 0,-0.0745 -0.12088,-0.17803 -0.29542,-0.0773 -0.17371,0.10199 -0.35916,0.22876 -0.54235,0.22876 -0.3468,0 -0.70293,-0.35093 -0.70293,-0.60749 l 1.43919,0 c 0.11175,0 0.18331,-0.096 0.18331,-0.18331 0,-0.43859 -0.34014,-1.04986 -0.99531,-1.04986 z m 0.0121,0.33027 c 0.38421,0 0.59386,0.37286 0.59386,0.59385 l -1.24528,0 c 0,-0.28704 0.29068,-0.59688 0.65142,-0.59385 z"
       id="path3640-1" />
    <path
       style="color:#000000;fill:#023d7c;fill-opacity:1;stroke:none;stroke-width:1px;marker:none;visibility:visible;display:inline;overflow:visible;enable-background:accumulate"
       d="m 539.87962,398.05278 c -0.73914,0 -1.04698,0.62512 -1.04698,1.09568 0,0.45563 0.292,1.09567 1.09872,1.09567 0.33912,0 0.86589,-0.26946 0.86589,-0.49457 0,-0.0749 -0.12143,-0.17884 -0.29674,-0.0776 -0.17451,0.10244 -0.36078,0.22978 -0.5448,0.22978 -0.34837,0 -0.7061,-0.35252 -0.7061,-0.61022 l 1.44568,0 c 0.11224,0 0.18414,-0.0964 0.18414,-0.18414 0,-0.44057 -0.34169,-1.05459 -0.99981,-1.05459 z m 0.0122,0.33176 c 0.38595,0 0.59653,0.37454 0.59653,0.59653 l -1.25089,0 c 0,-0.28834 0.29198,-0.59958 0.65436,-0.59653 z"
       id="path3640-9-7" />
    <path
       style="color:#000000;fill:#00a2e1;fill-opacity:1;stroke:none;stroke-width:1px;marker:none;visibility:visible;display:inline;overflow:visible;enable-background:accumulate"
       d="m 559.08796,398.35446 c 7.6e-4,-0.30899 0.40151,-0.31255 0.40151,0.007 0,0.0422 0,0.0349 0,0.0349 0.10093,-0.10092 0.29088,-0.27277 0.65901,-0.27277 0.47596,0 0.85759,0.36233 0.85759,0.75721 l 0,1.18054 c 0,0.34315 -0.39934,0.35215 -0.39934,0 l 0,-1.14781 c 0,-0.20381 -0.24312,-0.44298 -0.53025,-0.44298 -0.3071,0 -0.59573,0.27969 -0.59573,0.47572 l 0,1.13035 c 0,0.33261 -0.39716,0.3309 -0.39716,0 0,0 0.003,-1.11944 0.005,-1.72172 l -10e-6,0 z"
       id="path3685-4"
       sodipodi:nodetypes="csccccccccccsc" />
    <path
       style="color:#000000;fill:#00a2e1;fill-opacity:1;stroke:none;stroke-width:1px;marker:none;visibility:visible;display:inline;overflow:visible;enable-background:accumulate"
       d="m 551.94141,398.35665 c 7.6e-4,-0.30899 0.40151,-0.31256 0.40151,0.007 0,0.0422 0,0.0349 0,0.0349 0.10093,-0.10093 0.29088,-0.27277 0.65901,-0.27277 0.47596,0 0.85759,0.36233 0.85759,0.75721 l 0,1.18054 c 0,0.34315 -0.39934,0.35215 -0.39934,0 l 0,-1.14781 c 0,-0.20381 -0.24313,-0.44298 -0.53026,-0.44298 -0.3071,0 -0.59573,0.27969 -0.59573,0.47571 l 0,1.13036 c 0,0.3326 -0.39715,0.33089 -0.39715,0 0,0 0.003,-1.11945 0.005,-1.72173 l 0,0 z"
       id="path3685-4-8"
       sodipodi:nodetypes="csccccccccccsc" />
    <path
       style="color:#000000;fill:#023d7c;fill-opacity:1;stroke:none;stroke-width:1px;marker:none;visibility:visible;display:inline;overflow:visible;enable-background:accumulate"
       d="m 546.46265,398.26882 c 7.7e-4,-0.31439 0.38463,-0.31801 0.38463,0.007 0,0.043 0,0.0355 0,0.0355 0.0967,-0.10269 0.27865,-0.27753 0.6313,-0.27753 0.45592,0 0.8215,0.36865 0.8215,0.77042 l 0,1.20115 c 0,0.34914 -0.38253,0.35829 -0.38253,0 l 0,-1.16785 c 0,-0.20736 -0.2329,-0.45071 -0.50796,-0.45071 -0.29418,0 -0.57067,0.28457 -0.57067,0.48402 l 0,1.15008 c 0,0.33842 -0.38045,0.33668 -0.38045,0 0,0 0.003,-1.13898 0.004,-1.75176 l 0,0 z"
       id="path3685-4-2-6"
       sodipodi:nodetypes="csccccccccccsc" />
    <g
       style="font-size:25.22137833px;font-style:normal;font-variant:normal;font-weight:normal;font-stretch:normal;text-align:start;line-height:125%;writing-mode:lr-tb;text-anchor:start;fill:#023d7c;fill-opacity:1;stroke:none;font-family:Browallia New;-inkscape-font-specification:Browallia New"
       id="text4200"
       transform="matrix(0.20151893,0,0,0.20151893,479.29433,298.44103)">
      <path
         d="m 265.34263,504.71219 -1.34235,0 0,-11.78558 1.45318,0 0,4.19946 c 0.60755,-0.76353 1.3875,-1.1453 2.33988,-1.14531 0.7389,1e-5 1.37313,0.17653 1.90269,0.52955 0.52954,0.35305 0.94825,0.85386 1.25614,1.50245 0.30787,0.6486 0.46181,1.41624 0.46182,2.30293 -1e-5,1.35467 -0.33868,2.45892 -1.016,3.31277 -0.67734,0.85385 -1.57019,1.28077 -2.67854,1.28077 -1.00985,0 -1.80212,-0.42282 -2.37682,-1.26846 z m -0.0123,-4.33493 c 0,0.84565 0.0924,1.49014 0.27709,1.93348 0.18473,0.44335 0.45361,0.78817 0.80664,1.03447 0.35303,0.2463 0.74712,0.36945 1.18226,0.36945 0.71427,0 1.28282,-0.30582 1.70564,-0.91747 0.42281,-0.61165 0.63422,-1.39777 0.63423,-2.35835 -1e-5,-0.68143 -0.0944,-1.2664 -0.28325,-1.75491 -0.18884,-0.48849 -0.44951,-0.86205 -0.78201,-1.12067 -0.33251,-0.25861 -0.73275,-0.38792 -1.20072,-0.38793 -0.75533,1e-5 -1.33414,0.31404 -1.73644,0.94211 -0.40229,0.62808 -0.60344,1.38135 -0.60344,2.25982 z"
         id="path5539" />
      <path
         d="m 273.11347,508.00033 -0.16009,-1.35467 c 0.31198,0.0821 0.58702,0.12315 0.82511,0.12315 0.33661,0 0.6137,-0.0657 0.83127,-0.19704 0.21756,-0.13136 0.37356,-0.29967 0.46798,-0.50492 0.0944,-0.20525 0.25656,-0.62807 0.48644,-1.26846 l 0.0369,-0.0739 -3.23888,-8.54669 1.55171,0 1.77337,4.93836 c 0.26272,0.73891 0.47208,1.39982 0.62808,1.98274 0.15598,-0.6486 0.35302,-1.29719 0.59112,-1.94579 l 1.82264,-4.97531 1.45319,0 -3.2512,8.68216 c -0.31199,0.82922 -0.57471,1.45934 -0.78817,1.89037 -0.21346,0.43103 -0.49671,0.77585 -0.84974,1.03447 -0.35304,0.25862 -0.76765,0.38793 -1.24383,0.38793 -0.27914,0 -0.59113,-0.0575 -0.93595,-0.17241 z"
         id="path5541" />
    </g>
    <path
       d="m 571.93734,395.75627 c -0.74125,-0.0211 -1.48673,0.25951 -2.01859,0.75976 -0.53185,0.50026 -0.84303,1.21354 -0.84259,1.9314 0,0.70444 0.29956,1.40455 0.81412,1.90265 0.51457,0.49812 1.23778,0.78811 1.96548,0.78811 0.7277,0 1.45092,-0.28999 1.96548,-0.78811 0.51456,-0.4981 0.81413,-1.19821 0.81413,-1.90265 4.2e-4,-0.69154 -0.28742,-1.37928 -0.78493,-1.87553 -0.49752,-0.49626 -1.19904,-0.79534 -1.9131,-0.81563 z m -0.13568,0.84839 c 0.4671,0.0111 0.92692,0.21287 1.25232,0.54938 0.32541,0.33651 0.51257,0.80385 0.50973,1.27278 0.002,0.34964 -0.10194,0.69933 -0.28977,0.99353 -0.0678,0.10627 -0.14666,0.20436 -0.23539,0.29391 -0.33438,0.33747 -0.80562,0.53413 -1.27982,0.53413 -0.4742,0 -0.94543,-0.19666 -1.27983,-0.53413 -0.33438,-0.33746 -0.52775,-0.8115 -0.52515,-1.28744 -0.003,-0.4833 0.19649,-0.96463 0.53999,-1.30334 0.3435,-0.33871 0.82653,-0.53032 1.30792,-0.51882 z"
       id="path3929-1"
       style="fill:#00a1e1;fill-opacity:1"
       inkscape:connector-curvature="0"
       sodipodi:nodetypes="cscssscscsscsssscss" />
    <path
       id="path4466-7"
       d="m 574.28089,399.69502 c 0,0 2.44058,0.21045 2.70722,-0.62344 0.20614,-0.64463 -1.87583,-0.27628 -1.92391,-0.70135 -0.0481,-0.42505 0.66651,-0.8926 0.66651,-0.8926 0,0 2.22954,-1.5 1.98575,-2.01901 -0.31205,-0.66436 -2.0112,1.06946 -2.5767,0.74385 -0.1739,-0.10014 0.34204,-0.80523 0.60672,-1.25786 0.43208,-0.73889 0.78143,-1.46938 0.49952,-1.60418 -0.47411,-0.2267 -2.08725,2.01806 -2.43925,1.8915 -0.16463,-0.0592 0,-1.03038 0,-1.05556 0,0 0.25423,-1.41683 -0.0962,-1.48058 -0.50219,-0.0914 -1.21619,2.58571 -1.69717,2.47948 -0.41006,-0.0906 -0.007,-1.65062 -0.4535,-1.65062 -0.19587,0 -0.45623,0.44695 -0.5788,0.94882 -0.15692,0.64245 -0.10466,1.45108 -0.10466,1.45108 0,0 0.45674,3.21793 3.40446,3.77047 z"
       style="fill:#fcc222;fill-opacity:1"
       inkscape:connector-curvature="0" />
    <path
       id="path4444-4"
       d="m 570.87688,395.92856 c 0,0 0.0277,0.31468 0.18482,0.8272 0.24085,-0.0918 0.95312,-0.39955 1.93152,0.36974 0.71576,0.6167 0.26906,2.28309 0.26906,2.28309 l 0.0117,0.0117 c 0,0 0.1164,0.07 0.46294,0.16774 0.44419,0.12528 0.57578,0.11094 0.57578,0.11094 0,0 1.09475,-1.82348 -0.53277,-3.23532 -1.29115,-1.12007 -2.80586,-0.58837 -2.90308,-0.53513 z"
       style="fill:#003c7b;fill-opacity:1"
       inkscape:connector-curvature="0"
       sodipodi:nodetypes="cccccscscc" />
    <path
       id="path4464-0"
       d="m 571.77683,398.28684 c 0.6847,0.84763 1.49672,1.1335 1.49672,1.1335 0,0 0.35902,-0.40604 0.35902,-0.8563 0,-0.84365 -0.26185,-1.17636 -0.5012,-1.43555 -0.31191,-0.33777 -0.86242,-0.55668 -1.26191,-0.55668 -0.38753,0 -0.81018,0.17616 -0.81018,0.17616 0,0 0.0826,0.75285 0.71755,1.53887 z"
       style="fill:#fac021;fill-opacity:1"
       inkscape:connector-curvature="0"
       sodipodi:nodetypes="scssscs" />
  </g>
</svg>
